<svg xmlns="http://www.w3.org/2000/svg" width="64" height="64" viewBox="0 0 64 64" role="img" aria-label="Imagem padrão">
  <defs>
    <!-- Cores institucionais (convertidas para HEX) -->
    <!-- Azul Pantone 294 C ~ #002F6C | Verde Pantone 356 C ~ #007A33 | Cinza Cool Gray 7 ~ #97999B -->
    <linearGradient id="ring" x1="0" y1="0" x2="1" y2="1">
      <stop offset="0" stop-color="#002F6C"/>
      <stop offset="1" stop-color="#007A33"/>
    </linearGradient>

    <clipPath id="clipCircle">
      <circle cx="32" cy="32" r="30"/>
    </clipPath>
  </defs>

  <!-- Fundo circular -->
  <circle cx="32" cy="32" r="30" fill="#F3F4F6" stroke="#97999B" stroke-width="2"/>

  <!-- Faixas abstratas (sem logomarca) -->
  <g clip-path="url(#clipCircle)" opacity="0.95">
    <path d="M-6 44 C 10 28, 22 52, 40 34 C 52 22, 70 30, 74 18 L 74 70 L -6 70 Z"
          fill="url(#ring)"/>
    <path d="M-6 50 C 12 36, 22 58, 44 40 C 56 30, 68 34, 74 24"
          fill="none" stroke="#002F6C" stroke-width="4" opacity="0.35"/>
    <path d="M-6 54 C 14 44, 26 62, 46 46 C 58 36, 68 40, 74 32"
          fill="none" stroke="#007A33" stroke-width="4" opacity="0.28"/>
  </g>

  <!-- Miolo -->
  <circle cx="32" cy="26" r="10" fill="#FFFFFF" stroke="#97999B" stroke-width="2"/>
  <rect x="18" y="38" width="28" height="10" rx="5" fill="#FFFFFF" stroke="#97999B" stroke-width="2"/>

  <!-- Sigla "UF" neutra -->
  <text x="32" y="29" text-anchor="middle" font-family="Arial, sans-serif" font-size="9" font-weight="700" fill="#002F6C">UF</text>
</svg>
